# xmcd
#
# Track frame offsets:
#	150
#	11125
#	22703
#	35418
#	46310
#	56115
#	69175
#	79725
#	89223
#	101660
#	113113
#	123550
#	134293
#	143825
#	157703
#	168845
#	180320
#	192248
#	205703
#	215443
#	226205
#	238263
#	249070
#	260398
#	272978
#	282690
#	294380
#	306180
#	318395
#
# Disc length: 4380
#
# Revision: 2
# Processed by: cddbd v1.5.1PL0 Copyright (c) Steve Scherf et al.
# Submitted via: EasyCDDAExtractor 5.0.6
# Normalized: r1:DSETVAR1
#
DISCID=99111a1d
DTITLE=Various Artist - Dark Clouds Rollin' - Excello Swamp Blues Classics
DYEAR=1900
DGENRE=Blues
TTITLE0=Lightnin' Slim - I' Evil
TTITLE1=Lazy Lester - You're Gonna Ruin Me, Baby
TTITLE2=Slim Harpo - I Got Love If You Want It
TTITLE3=Jimmy Anderson - Going Through The Park
TTITLE4=Lightnin' Slim - I'm Warning You Baby
TTITLE5=Lonesome Sundown - Lonesome Lonely Blues
TTITLE6=Leroy Washington - Wild Cherry
TTITLE7=Silas Hogan - You're Too Late Baby
TTITLE8=Lazy Lester - I'm A Lover Not A Fighter
TTITLE9=Slim Harpo - I Love The Life I'm Living
TTITLE10=Jimmy Anderson - Naggin'
TTITLE11=Silas Hogan - I'm Gonna Quit You Pretty Baby
TTITLE12=Lonesome Sundown - I'm Glad She's Mine
TTITLE13=Slim Harpo - I'm A King Bee
TTITLE14=Whispering Smith - Mean Woman Blues
TTITLE15=Lightnin' Slim - Loving Around The Clock
TTITLE16=Slim Harpo - My Little Queen Bee
TTITLE17=Whispering Smith - I Tried So Hard
TTITLE18=Silas Hogan - I'm Goin' In The Valley
TTITLE19=Lonesome Sundown - I Had A Dream Last Night
TTITLE20=Lightnin' Slim - She's My Crazy Little Baby
TTITLE21=Slim Harpo - I Need Money
TTITLE22=Jimmy Anderson - Goin' Crazy Over T.V.
TTITLE23=Silas Hogan - Dark Clouds Rollin'
TTITLE24=Lonesome Sundown - You're Playing Hookey
TTITLE25=Slim Harpo - Rainin' In My Heart
TTITLE26=Jimmy Anderson - Nothing In This World
TTITLE27=Lightnin' Slim - Winter Time Blues
TTITLE28=Whispering Smith - Cryin' Blues
EXTD=
EXTT0=
EXTT1=
EXTT2=
EXTT3=
EXTT4=
EXTT5=
EXTT6=
EXTT7=
EXTT8=
EXTT9=
EXTT10=
EXTT11=
EXTT12=
EXTT13=
EXTT14=
EXTT15=
EXTT16=
EXTT17=
EXTT18=
EXTT19=
EXTT20=
EXTT21=
EXTT22=
EXTT23=
EXTT24=
EXTT25=
EXTT26=
EXTT27=
EXTT28=
PLAYORDER=
